<mxfile host="65bd71144e">
    <diagram id="ADlVROaBK_LF-3NFWINT" name="trusted-dataspace-concept">
        <mxGraphModel dx="949" dy="503" grid="1" gridSize="10" guides="1" tooltips="1" connect="1" arrows="1" fold="1" page="1" pageScale="1" pageWidth="850" pageHeight="1100" math="0" shadow="0">
            <root>
                <mxCell id="0"/>
                <mxCell id="1" parent="0"/>
                <mxCell id="24" value="Data&lt;br&gt;Space" style="rounded=1;whiteSpace=wrap;html=1;fillColor=#fff2cc;strokeColor=#d6b656;" vertex="1" parent="1">
                    <mxGeometry x="310" y="240" width="150" height="120" as="geometry"/>
                </mxCell>
                <mxCell id="8" value="Consumer Company A" style="rounded=1;whiteSpace=wrap;html=1;verticalAlign=bottom;labelPosition=center;verticalLabelPosition=top;align=center;" vertex="1" parent="1">
                    <mxGeometry x="500" y="110" width="210" height="170" as="geometry"/>
                </mxCell>
                <mxCell id="2" value="Provider" style="rounded=1;whiteSpace=wrap;html=1;verticalAlign=bottom;labelPosition=center;verticalLabelPosition=top;align=center;" vertex="1" parent="1">
                    <mxGeometry x="20" y="200" width="280" height="190" as="geometry"/>
                </mxCell>
                <mxCell id="29" style="edgeStyle=none;html=1;exitX=0.25;exitY=1;exitDx=0;exitDy=0;entryX=1;entryY=0.5;entryDx=0;entryDy=0;" edge="1" parent="1" source="3" target="26">
                    <mxGeometry relative="1" as="geometry">
                        <Array as="points">
                            <mxPoint x="263" y="360"/>
                        </Array>
                    </mxGeometry>
                </mxCell>
                <mxCell id="31" value="provision" style="edgeLabel;html=1;align=center;verticalAlign=middle;resizable=0;points=[];" vertex="1" connectable="0" parent="29">
                    <mxGeometry x="-0.0119" relative="1" as="geometry">
                        <mxPoint as="offset"/>
                    </mxGeometry>
                </mxCell>
                <mxCell id="30" style="edgeStyle=none;html=1;exitX=0.25;exitY=0;exitDx=0;exitDy=0;entryX=1;entryY=0.5;entryDx=0;entryDy=0;" edge="1" parent="1" source="3" target="28">
                    <mxGeometry relative="1" as="geometry">
                        <Array as="points">
                            <mxPoint x="263" y="225"/>
                        </Array>
                    </mxGeometry>
                </mxCell>
                <mxCell id="32" value="provision" style="edgeLabel;html=1;align=center;verticalAlign=middle;resizable=0;points=[];" vertex="1" connectable="0" parent="30">
                    <mxGeometry x="-0.0441" y="-3" relative="1" as="geometry">
                        <mxPoint x="-9" y="3" as="offset"/>
                    </mxGeometry>
                </mxCell>
                <mxCell id="3" value="edc-connector" style="rounded=0;whiteSpace=wrap;html=1;fillColor=#fff2cc;strokeColor=#d6b656;" vertex="1" parent="1">
                    <mxGeometry x="240" y="280" width="90" height="40" as="geometry"/>
                </mxCell>
                <mxCell id="4" value="edc-connector" style="rounded=0;whiteSpace=wrap;html=1;fillColor=#fff2cc;strokeColor=#d6b656;" vertex="1" parent="1">
                    <mxGeometry x="450" y="250" width="90" height="40" as="geometry"/>
                </mxCell>
                <mxCell id="37" style="edgeStyle=none;html=1;exitX=0.5;exitY=0.5;exitDx=0;exitDy=0;exitPerimeter=0;entryX=1;entryY=0.25;entryDx=0;entryDy=0;" edge="1" parent="1" source="6" target="4">
                    <mxGeometry relative="1" as="geometry">
                        <Array as="points">
                            <mxPoint x="605" y="260"/>
                        </Array>
                    </mxGeometry>
                </mxCell>
                <mxCell id="38" value="negotiiation" style="edgeLabel;html=1;align=center;verticalAlign=middle;resizable=0;points=[];" vertex="1" connectable="0" parent="37">
                    <mxGeometry x="0.2537" y="-2" relative="1" as="geometry">
                        <mxPoint as="offset"/>
                    </mxGeometry>
                </mxCell>
                <mxCell id="39" style="edgeStyle=none;html=1;exitX=0.5;exitY=0.5;exitDx=0;exitDy=0;exitPerimeter=0;entryX=0.5;entryY=0;entryDx=0;entryDy=0;" edge="1" parent="1" source="6" target="28">
                    <mxGeometry relative="1" as="geometry">
                        <Array as="points">
                            <mxPoint x="100" y="170"/>
                        </Array>
                    </mxGeometry>
                </mxCell>
                <mxCell id="40" value="interaction" style="edgeLabel;html=1;align=center;verticalAlign=middle;resizable=0;points=[];" vertex="1" connectable="0" parent="39">
                    <mxGeometry x="0.0314" relative="1" as="geometry">
                        <mxPoint as="offset"/>
                    </mxGeometry>
                </mxCell>
                <mxCell id="6" value="carla-consumer" style="shape=umlActor;verticalLabelPosition=top;verticalAlign=bottom;html=1;outlineConnect=0;fillColor=#d5e8d4;strokeColor=#82b366;labelPosition=center;align=center;" vertex="1" parent="1">
                    <mxGeometry x="590" y="140" width="30" height="60" as="geometry"/>
                </mxCell>
                <mxCell id="13" value="Consumer Company-B" style="rounded=1;whiteSpace=wrap;html=1;verticalAlign=top;labelPosition=center;verticalLabelPosition=bottom;align=center;horizontal=1;" vertex="1" parent="1">
                    <mxGeometry x="500" y="320" width="210" height="180" as="geometry"/>
                </mxCell>
                <mxCell id="14" value="edc-connector" style="rounded=0;whiteSpace=wrap;html=1;fillColor=#fff2cc;strokeColor=#d6b656;" vertex="1" parent="1">
                    <mxGeometry x="450" y="310" width="90" height="40" as="geometry"/>
                </mxCell>
                <mxCell id="33" style="edgeStyle=none;html=1;exitX=0.5;exitY=0.5;exitDx=0;exitDy=0;exitPerimeter=0;entryX=1;entryY=0.5;entryDx=0;entryDy=0;" edge="1" parent="1" source="15" target="14">
                    <mxGeometry relative="1" as="geometry">
                        <Array as="points">
                            <mxPoint x="605" y="330"/>
                        </Array>
                    </mxGeometry>
                </mxCell>
                <mxCell id="34" value="negotioation" style="edgeLabel;html=1;align=center;verticalAlign=middle;resizable=0;points=[];" vertex="1" connectable="0" parent="33">
                    <mxGeometry x="0.2851" y="-1" relative="1" as="geometry">
                        <mxPoint x="12" y="31" as="offset"/>
                    </mxGeometry>
                </mxCell>
                <mxCell id="41" style="edgeStyle=none;html=1;exitX=0.5;exitY=0.5;exitDx=0;exitDy=0;exitPerimeter=0;entryX=0.5;entryY=1;entryDx=0;entryDy=0;" edge="1" parent="1" source="15" target="26">
                    <mxGeometry relative="1" as="geometry">
                        <Array as="points">
                            <mxPoint x="100" y="430"/>
                        </Array>
                    </mxGeometry>
                </mxCell>
                <mxCell id="42" value="interaction" style="edgeLabel;html=1;align=center;verticalAlign=middle;resizable=0;points=[];" vertex="1" connectable="0" parent="41">
                    <mxGeometry x="0.0514" y="-3" relative="1" as="geometry">
                        <mxPoint as="offset"/>
                    </mxGeometry>
                </mxCell>
                <mxCell id="15" value="tensorflow-consumer" style="shape=umlActor;verticalLabelPosition=bottom;verticalAlign=top;html=1;outlineConnect=0;fillColor=#e1d5e7;strokeColor=#9673a6;" vertex="1" parent="1">
                    <mxGeometry x="590" y="400" width="30" height="60" as="geometry"/>
                </mxCell>
                <mxCell id="22" value="carla-service" style="rounded=0;whiteSpace=wrap;html=1;fillColor=#d5e8d4;strokeColor=#82b366;" vertex="1" parent="1">
                    <mxGeometry x="50" y="240" width="100" height="30" as="geometry"/>
                </mxCell>
                <mxCell id="23" value="tensorflow-service" style="rounded=0;whiteSpace=wrap;html=1;fillColor=#e1d5e7;strokeColor=#9673a6;" vertex="1" parent="1">
                    <mxGeometry x="50" y="315" width="100" height="30" as="geometry"/>
                </mxCell>
                <mxCell id="25" value="Questions&lt;br&gt;- existing components to enable trust (self-description?)&lt;br&gt;- which component is required by which role&lt;br&gt;- who has a self description&lt;br&gt;- how to create and sign a self-description&lt;br&gt;- who signs the self-description&lt;br&gt;- has a user also a self-description&amp;nbsp;" style="rounded=1;whiteSpace=wrap;html=1;fillColor=#fff2cc;strokeColor=#d6b656;align=left;verticalAlign=top;arcSize=0;" vertex="1" parent="1">
                    <mxGeometry x="40" y="480" width="270" height="240" as="geometry"/>
                </mxCell>
                <mxCell id="26" value="workflow-api" style="rounded=0;whiteSpace=wrap;html=1;fillColor=#dae8fc;strokeColor=#6c8ebf;" vertex="1" parent="1">
                    <mxGeometry x="55" y="345" width="90" height="30" as="geometry"/>
                </mxCell>
                <mxCell id="28" value="workflow-api" style="rounded=0;whiteSpace=wrap;html=1;fillColor=#dae8fc;strokeColor=#6c8ebf;" vertex="1" parent="1">
                    <mxGeometry x="55" y="210" width="90" height="30" as="geometry"/>
                </mxCell>
                <mxCell id="48" value="" style="shape=image;verticalLabelPosition=bottom;labelBackgroundColor=default;verticalAlign=top;aspect=fixed;imageAspect=0;image=data:image/png,iVBORw0KGgoAAAANSUhEUgAAAgAAAAIACAYAAAD0eNT6AAAABHNCSVQICAgIfAhkiAAAAAlwSFlzAAARuQAAEbkBPuof1QAAABl0RVh0U29mdHdhcmUAd3d3Lmlua3NjYXBlLm9yZ5vuPBoAACAASURBVHic7d139F1lne/xdwopBlKoISDCQCAIKEVRsUBQAZNBxwKIArpc17FcFQsjYBlHXEsR9IKM3LkzFxUsFwtihhKkSR0rIiMCGimCdEIJhJbyy/3jOVkETDll7/Pd+3ner7WelQUhOZ+9Ob+9P2efZz97FBrEVsCewA7ALGBbYDNgUmesHxdNUsutAB4BFnfGncAC4I/AjcAvgSfC0qn1RkUHaJkJwFxgf2Bf0glfkiIsAX4N/Az4CXBdbBy1jQWgO3sB7wIOBqYGZ5Gk1bke+DbwXeDe4CxqAQvA2r0K+Dzp074ktcES4AfAccDNwVnUYBaA1dsbOAnYLTqIJPVpKXA68ClgYWwUNdGY6AANsxFwMnAKsHlwFkkaxBhgD+C9wFPANaSJhRLgFYBVvQU4DZgWHUSSanAl8A7gruggaobR0QEaYD3geOAsPPlLytdrSHcKzIkOomYo/SuAjYFLgEPwaoik/D2PdBVgCXB1cBYFK7kAzAAuBnaPDiJJQzQKeC3pA9CFOC+gWKUWgO2Bq4CZ0UEkKciewHbAf2IJKFKJBWAGcBlpGV9JKtmLgOnAedFBNHylFYAppO/8Z0UHkaSG2IP0tcDlwTk0ZCUVgNHAOaRlfSVJz9iH9KChPwTn0BCVdBvgp4HXR4eQpIb6D7w6WpRSbn3bG7iUsq54SFKvrgNeQVo5UJkr4YQ4HpgPbBIdRJIabjqwHOcDFKGErwCOJd32J0lat2PwmFmE3L8C2JY0qWVCdBBJapELcMng7OV+BeBzePKXpF69AXh1dAjVK+crANuQbmsZGx1EklroQuCA6BCqT85XAD6JJ39J6tf+wEujQ6g+ud4FMBn4DulRv5Kk/owD5kWHUD1yvQLwNtJjLyVJ/XsbsH50CNUj1wJweHQAScrAJOBN0SFUjxwLwHTgNdEhJCkTh0QHUD1yLAD7kud2SVKEfXA+VZZyPFHOjg4gSRnZgPTIYGUmxwKwT3QAScqMH6wylFsBmERa/leSVJ0XRQdQ9XIrANuT9+qGkhRhh+gAql5uBWBWdABJypAfrjKUWwHYOjqAJGVoErBpdAhVK7cCMCU6gCRlanJ0AFUrtwKwQXQAScqUx9fM5FYAXLNakuphAchMbo/LHRcd4DkOB74bHUJSK10CvDY6xComRAdQtXK7AiBJkrpgAZAkqUAWAEmSCmQBkCSpQBYASZIKZAGQJKlAFgBJkgpkAZAkqUAWAEmSCmQBkCSpQBYASZIKZAGQJKlAFgBJkgpkAZAkqUAWAEmSCmQBkCSpQBYASZIKZAGQJKlAFgBJkgpkAZAkqUAWAEmSCmQBkCSpQBYASZIKZAGQJKlAFgBJkgpkAZAkqUAWAEmSCmQBkCSpQBYASZIKZAGQJKlAFgBJkgpkAZAkqUAWAEmSCmQBkCSpQBYASZIKZAGQJKlAFgBJkgpkAZAkqUAWAEmSCmQBkCSpQBYASZIKZAGQJKlAFgBJkgpkAZAkqUAWAEmSCmQBkCSpQBYASZIKZAGQJKlAFgBJkgpkAZAkqUAWAEmSCmQBkCSpQBYASZIKZAGQJKlAFgBJkgpkAZAkqUAWAEmSCmQBkCSpQBYASZIKZAGQJKlAY6MDqFE2AQ4E5gA7AJt1/p3K9ShwF3AHcCEwD7gtNJGkSlgABLAh8EngSGBCcBY1y+TO2BHYH/gqcBbwKeDmwFySBuRXANob+BNwNJ78tW6jgIOAPwDvCc4iaQAWgLK9E7gI2Dg6iFpnPPAN4EvRQST1xwJQrleSDuDjooOo1Y4B3h8dQlLvLABlmgqcTfoUJw3qFODF0SEk9cYCUKZjgU2jQygb6wEnRIeQ1BsLQHmmAh+ODqHs7Ae8PDqEpO5ZAMozB5gYHUJZemt0AEndswCUZ050AGVrbnQASd2zAJRnu+gAyta2pHUCJLWABaA8M6IDKFvjgI2iQ0jqjgVAUpW8AiC1hAWgPHdHB1C2lgALo0NI6o4FoDy3RgdQtm4DVkSHkNQdC0B55kcHULbOjw4gqXsWgPLMB56ODqEs/SQ6gKTuWQDK8xBwanQIZecK4OroEJK6ZwEo0xeBB6NDKBvLgU9Eh5DUGwtAmR4E3g4siw6iLBwF/DY6hKTeWADKdQnwAdKnN6lf/wqcHB1CUu8sAGU7jfRsgIejg6h1lgHHAB+JDiKpPxYAXQRsD3yZtJCLtC6XAHuQ3jOSWmpsdAA1wkLSp7lTgTcBfw/MJD03YEJgLsVbCtxHWuTnQmAecENoIkmVsABoVX8Fvt4ZkqSM+RWAJEkFsgBIklQgC4AkSQWyAEiSVCALgCRJBbIASJJUIAuAJEkFsgBIklQgC4AkSQWyAEiSVCALgCRJBbIASJJUIAuAJEkFsgBIklQgC4AkSQWyAEiSVCALgCRJBbIASJJUIAuAJEkFsgBIklQgC4AkSQWyAEiSVCALgCRJBbIASJJUIAuAJEkFsgBIklQgC4AkSQWyAEiSVCALgCRJBbIASJJUIAuAJEkFsgBIklQgC4AkSQWyAEiSVKCx0QHUODsCc4GZwAxgQmwcqW8PAfcAvwIuAB6JjSM1iwVAAKOAtwL/AuwUG0WqxVLgbOAzwM3BWaRG8CsAbQFcBfwIT/7K13rAIcCNwOdIpVcqmgWgbLsDvwZeGR1EGpL1SFe6zgImxkaRYlkAyvUCYD7pe36pNG8BzsArASqYBaBM6wHzgM2ig0iBDgKOjA4hRbEAlOm9wK7RIaQGOA6LsAplASjPOOCz0SGkhtgA+KfoEFIEC0B5XgtMjw4hNcihOBdABbIAlOfA6ABSw8wA9ogOIQ2bBaA8O0cHkBpol+gA0rBZAMrjbX/S3/LnQsWxAJTnedEBpAby50LFsQCU597oAFID3RMdQBo2C0B57owOIDWQPxcqjgWgPJdEB5AaZilwRXQIadgsAOX5T2BFdAipQa4EHo4OIQ2bBaA8twM/iQ4hNchXowNIESwAZTqWdNlTKt1lwAXRIaQIFoAyLQA+GR1CCvYg6cFYUpEsAOU6Gfj36BBSkCeBtwK3RAeRolgAyvYB4BhgJDqINER3A/vgzH8VzgJQthXAl4H9gOuCs0h1Ww6cBuwO/Do4ixRubHQANcKlpKeh/QPwNmAOMCU0kVSdP5Jufz0DuCk4i9QYFgCtNAKc3Rmjgc2AzYENI0NJfVoG3Eda4e+x4CxSI1kAtDojpLXRXR9dkjLlHABJkgpkAZAkqUAWAEmSCmQBkCSpQBYASZIKZAGQJKlAFgBJkgpkAZAkqUAWAEmSCmQBkCSpQBYASZIKZAGQJKlAFgBJkgpkAZAkqUAWAEmSCmQBkCSpQBYASZIKZAGQJKlAFgBJkgpkAZAkqUAWAEmSCmQBkCSpQBYASZIKZAGQJKlAFgBJkgpkAZAkqUAWAEmSCmQBkCSpQBYASZIKZAGQJKlAFgBJkgpkAZAkqUAWAEmSCmQBkCSpQBYASZIKZAGQJKlAFgBJkgpkAZAkqUAWAEmSCmQBkCSpQGOjA0iSGmUp8BfgYeBRYHHn390bmEk1sABIUrkeBX4J/AL4FbAAuB1YFhlKw2EBkKRm+iJwD3AgMKXCv/dWYB5wDnA1sLzCv1sKcyawokHjsHo3V1IBxgNvBM4lnaz7ORY9CpwGvHLI2aWhsQBIytnWwPGk7+e7OQbdCnwU2CAgqzRUFgBJJZgMHAvcz5pP/EcAY6ICSsNmAZBUkknAZ4BFpGPOXcAHgXGRoaQIFgBJJdoYeBcwMTqI2sO7ACSp/RYCZ0SHULu4EqAkSQWyAEiSVCALgCRJBbIASJJUIAuAJEkFsgBIklQgC4AkSQWyAEiSVCALgCRJBbIASJJUIAuAJEkFsgBIklQgC4AkSQWyAEiSVCALgCRJBRobHUCSCvM8YBdgY9Ix+GFgAXBvZKguTAe2B6YBy4CFwPXAE5GhpJXOBFY0aBxW7+ZKaomxwMHAZcASVn+8uBM4DZgDjImJ+SxjgLmkTHex+sxLSNt0EH6gVDALgKSm2Ru4hd6OHX8FPgFMCsg7CTiqk6GXzDcDrw7IKwEWAEnN8nlgOf0fQ+4HjgHWH0LWDYBjgQcGyLsc+NwQskp/wwIgqQlGASdR3bFkIXAk9Xw1MBo4Arinwrxf7ewDaWgsAJKa4FPUc0y5DphdYc7Znb+zjqxHV5hTWicLgKRoryPNkq/z2PITYLsBMm7X+TvqzLgM2HeAjFJPLACSIm1A75Pn+h1PAycDm/aQbzPga50/O4yMtzOc+QuSBUBSqFMY/nHmMeBLwFZrybUVcDywOCDfST3sP6lvFgBJUXYAlhJ3vFkGnA/8D+AVnfFeYD6D3Ykw6FgCzBxgv0pdsQBIivIj4o85TR3fH2C/qiY+C0CSBjcLeEt0iAY7GHhhdAg9mwVAkgZ3NB5P12YU8LHoEHo237CSNJjNgLdHh2iBw4HNo0PoGRYASRrMx4AJ0SFaYDzw4egQeoYFQJL6Nxl4X3SIFnk/aa0ENYAFQJL6935ganSIFpmGhakxLACS1J/xpAf0qDefwK9MGsECIEn9eTcwIzpEC03HNVIawQIgSb0bQ/okq/4cQz2PNlYPLACS1LsjcHnbQWyLVwHCWQAkqTcbkh6so8F8BdgoOkTJLACS1Juv09sjeLV6G5MeZ6wgFgBJ6s444GvAodFBMnIYqQSMiw5SIguAJK3ZaGBX0lr/NwIfiY2TpSNJ+/aTpH3teWlIxkYHkKRgY0hr1G+zyti68+uLSIvXqF7bAl/ujIeB64AFwJ+B24G7O7/eCywPypgdC4CkUswindB3IZ3cXwBsRbqX32Nhc0wDZnfGcy0jlYE7SIXgNuD3nfGnYQXMhW96SbkaD8wF3kY6mUyPjaMKjCWVtq2AVz3n9+4FLgPOAs4Hnh5uNEU7E1jRoOF9rtLwTQG+ADxE/DHAETMeAo4jvRe0Bk62kJSTQ4Bbgc/gd/clmwZ8FrgFODg4S2NZACTlYDRwCvB90kI9EqSFhn5Aun1zVHCWxrEASMrBicCHo0OosT4CnBAdomksAJLa7l3Ax6NDqPGOIr1X1GEBkNRmk3FdfnXvBGBqdIimsABIarOj8PY+dW9T0sqDwgIgqd1cl1+9OhwnBAIWAEnttSuwXXQItc62pNUgi2cBkNRWu0UHUGu9ODpAE1gAJLXVrOgAaq0dowM0gQVAUls5m1v98r2DBUBSe02MDqDW8r2DBUBSey2JDqDW8kmBWAAktdfD0QHUWr53sABIaq/7owOotR6IDtAEFgBJbXVLdAC11s3RAZrAAiCprf4cHUCtZQHAAiCpvW4CnowOodZ5AlgQHaIJLACS2moZcH10CLXOf5PeO8WzAEhqs99GB1DrXBsdoCksAJLazAKgXlkAOiwAktrsmugAah1LY8fY6ACSNIAbSBMBS17adQS4gzSx7QHgceCRzu9NBdYHNga2B14AjArI2BRPkN4zwgIgqd2WAb8D9ooOMkSPA1cClwGXkyZCPtXln50I7ALsA8wGXgM8r/KEzXUtTgDM1pnAigaNw+rdXEnAqcT/rNc9lgMXkY4pk6rZbUC6OnAEcHHnNaK3s+7xr9Xstjw4B0BS290YHaBGS4HvADsB+wHfJV0BqMpi4NvA64GZwCnk/aCcnN8rPbMASGq7XL/T/T6wHekT+h+H8Hq3AkcCs4CzhvB6ESwAq7AASGq7e6MDVOzPpE/kh5Im9w3bX4CDgAPI73kLub1XBmIBkNR2OT3a9TvA7sAl0UGAC4Fdge9FB6nQg9EBmsQCIKntlkYHqMDTwHtIl/sXB2dZ1WLSxMN/BJYEZ6lCDu+VylgAJLXdltEBBvQYMBf4VnSQtfi/wIE0q5z0o+3vlUpZACS13VujAwzgQdL9+JdGB+nCRcC+wEPRQQYwNzqA6uM6AFJZZpA+QUf/rPczFgMvq36X1G4v0q2I0fuvn7EQ2LT6XdJOXgGQ1FYTgB+RFrNpm6XA24BfRQfpw8+BQ2jninobAWcD46ODNIEFQFIbjQHOoL1LAH8K+Gl0iAGcB/xzdIg+vRI4nfQeUkb8CkDK3zjgh8T/fPc7ziePB/KMAs4hfn/2O+aRriIpExYAKW+TSPenR/9s9zseID2ZLxebkiYyRu/XfscFlPUwpGfxKwBJbTGVdPLfLzrIAI4mTUTLxf2krzPa6gDSUxU3jA6iwXkFQMrTdNJjf6N/pgcZ/0Uel/6fazRpMmP0/h1kXAtsVvWOaTqvAEhquq2BK0nL0rbZp0knm9yMAJ+JDjGg3YBfkB6+VAwLgKQm2wm4mvSo2jb7JXB5dIgaXUy6PbDNtgGuAl4cHWRYLACSmmov0sl/i+ggFfhSdIAh+Ep0gApMJ80JaOMCTT2zAEhqot1I95pPjQ5SgfuA+dEhhuBc0ra23TTSZNOXRAepmwVAUtPMIq2NPy06SEW+RztXzevVMuAH0SEqMoW0UFPbv3paKwuApCaZRlpcJpeTP6S7k0qR07ZuRLqqkcNVqNWyAEhqkm+R16euh0i3mJXiN8Ci6BAV2gH4ZnSIulgAJDXFu4A3RYeo2BWk2+RKsZx0y2ZO3gy8MzpEHSwAkppgEnBidIgaXBUdIEBuBQDgq2S4ZLAFQFITfBDYJDpEDW6KDhDgj9EBarAZ8L7oEFWzAEhqgg9GB6jJn6IDBMixAAB8KDpA1SwAkqLtTFruNzdLgdujQwT4C2kuQG7+DnhhdIgqWQAkRZsdHaAmj1HWBMCVlpG2PUdZvVctAJKiPT86QE1yPQl2Y3F0gJpk9V61AEiKtml0gJo8Hh0gUK7lZ3p0gCpZACRFy/VkMS46QKDx0QFqktMiRxYASeHuiQ5Qk/WjAwSaHB2gJlm9Vy0AkqJdFx2gJhtEBwiUa/nJ6r1qAZAU7VLynDQ2CdgwOkSATYAJ0SFqsBi4PDpElSwAkqI9DcyLDlGTHaIDBMh1m88GnooOUSULgKQm+CJ53jO/fXSAADkWgOXAl6JDVM0CIKkJbgLOiA5Rgz2jAwR4aXSAGpxOhkscWwAkNcXHgL9Gh6hYVivHdWnf6AAVuwv4p+gQdbAASGqKRcC7SGvo52IWsHl0iCHaEpgZHaJCS4HDgIejg9TBAiCpSS4DPhAdokKjgH+IDjFEb44OULGPkNnM/1VZACQ1zTfIa8LV4dEBhiinbf0C8H+iQ6h7ZwIrGjQOq3dzpaydRPzPcBVjhDLuBtiR+H1d1Tix4n3TSF4BkNRUHwOOiQ5RgVHAkdEhhuCj0QEq8mUynfSXO68ASPn5n6T7sKN/ngcZTwEzqt4xDbIlaRuj9/MgYwT4eNU7psm8AiCp6U6l/XcHjCfvT5XH0O4nAK6c7f+/ooOof14BkPI1F3iC+J/rfscSYKfK90q8F5NOoNH7t9/xBDCn8r3SAl4BkNQW5wMH0N5nsq9HmlU+KjpIhUYBXwPGRgfp02LgQGB+dJAIFgBJbXIl8FrggeggfXoVaU5DLo4E9o4O0acHSNkvjQ6iavgVgFSGHYE7if8Z72c8Bexe/S4ZupeSnuQYvT/7GXeSVmksmlcAJLXRTcDfA49FB+nDeOAHwEbRQQawCWkbxkUH6cNjpPkk2T3cp1cWAEltdR3pKtuK6CB92A44D5gUHaQP65PmY2wTHaQPK4B3Av8dHaQJLACS2uwc0ifRNno58EPa9Sl6PHAW7X3k7w+Ac6NDNIUFQFLbnRYdYABzSJ+mN4gO0oXJpNny+0cHGUCb3yuVswBIarsbowMM6HWkpyBOjw6yFjNIT8XbNzjHoP4QHaBJLACS2u7p6AAV2AP4HTA7OshqvJ6UbbfoIBXI4b1SGQuApLabGh2gItOBi4HjaMayuhOALwI/BTYNzlKVXN4rlbAASGq7DaMDVGgM8FngemC/wBxvIF0uP5a8zhNtvvWycjn9j5VUpu2jA9RgJnAhcAFp9cBheXXndecD2w7xdYdlZnSAJrEASGq7F0YHqNEBwFWkCXhvBybW8BoTgUOBK0hLLUdeeahbjg9j6ltbH+AgSSvtEh1gCPbujEXAj0lXBi4HFvb5920C7EO6DfEtpFv8SrBzdIAmsQBIaruXRAcYoinAezpjBWmuwPWkZW0XkArBIuDRzn8/ufNnNiZ9VbIjqTDtTF5PJexWWxcwqoUFQFKbbUG6R71Eo4AXdYa6s/L9cnd0kCZwDoCkNivp07+q4XumwwIgqc08mKtXe0QHaAoLgKQ282CuXu0eHaApLACS2iyH5Wk1XF416rAASGqrLWj2A3TUTNOBzaNDNIEFQFJb5bwAkOo1KzpAE1gAJLVVjkvVajh872ABkNReW0YHUGs9PzpAE1gAJLVVTk8B1HD53sECIKm91o8OoNbaIDpAE1gAJLXV0ugAaq2nowM0gQVAUls9Hh1ArfVkdIAmsABIaqu/RAdQa90aHaAJLACS2ur66ABqrRuiAzSBBUBSW/0cWBwdQq3zOPDL6BBNYAGQ1FaPA+dFh1DrzMP5I4AFQFK7nQSMRIdQa4wAJ0eHaAoLgKQ2+zXw7egQao3TgWuiQzSFBUBS230cuDE6hBrvBuCo6BBNYgGQ1HYPA28A7ogOosa6HTiA9F5RhwVAUg7uAPYAfhodRI3zM+BlwJ3RQZrGAiApFwuBucB7SJ/4VLbbgHcDrwfui43STBYASTkZAb4FbA+8k3RFYHloIg3TMmA+cCgwCzgD7xJZo7HRASSpBkuA/9cZU4DXAK8GdgV2BjaPi6YK3QX8AbgOuKozHg1N1CIWAEm5WwSc2xkrTQS2BrbqjC07v87o/Pp3wLihptRzjQD3kC7l30Z69sPtwF9Jcz5ux4f6DMQCIKlETwI3dcbqjCEVhN1JVw/2B2YOJVm5FgAXAVeSPtHfgY/tVQ/OBFY0aBxW7+ZKGqL9SU+Riz6u5DZuAfbr4f+DKuIkQEnqzoXAXniHQZVuI+3Ti6KDlMgCIEndu5d0ZW9FdJAMjJD2pbfoBbEASFJvriatKa/BfJP0SGcFsQBIUu+OxRnog3gC+HR0iNJZACSpd/fhVYBBfBO4PzpE6SwAktSfE0krz6k3y4GTo0PIAiBJ/boN+GF0iBY6k3Trn4JZACSpf1/GOwJ6sYK0z9QAFgBJ6t/vgQuiQ7TIfNLa/WoAC4AkDeYr0QFa5IToAHqGBUCSBnMZ8KvoEC3wG9I6/2oIC4AkDe6k6AAt4Hf/DWMBkKTB/Ri4OTpEg/0JmBcdQs/m44AlaXDLgM+SbnGLtBy4Brix888vBF5CerxxpM+Sskm18XHAkqKMJp18I441dwL/Amy5mlzP7/zeXUHZfgmM6mlPSn2wAEiKtAfpasCwjjEPAEcDE7vINg74R+DuIeZbBuze1Z6TBmQBkBTtBOo/tjwOfB6Y1Ee+ScBxpAfy1J3z+D7ySX2xAEiKth5wFfUcU0ZIx7mtKsi5VefvGqkp6+U4z0xDZAGQ1ASbAwuo9njyC+AVNWR9Bel7+iqz/hHYrIas0hpZACQ1xeak2fhVnEwPpd6JdKOAd5Bu1xs07w3A9BqzSqtlAZBUt216+G8nA/9O/yfSIxjuZfTRwEH0X1x+CEzr4fV2qCq4ZAGQVLcr6W7W/ar2Ay5m3ceMx4GzgDnELtQ2GphLWuCom8mCFwOv7/E1JgE/ryiv+uAEDUnqzQuBLwEf7eHPXNQZOwCvBXYFNiUdgx8iXXr/LXAF8GQFGVcu/NPv4jsjwPmd8Txgb9ItjtsDG5Ju77sfuA64lJS/VyfhFQBVyCsAkuq2kHSCnBMdZDVGA4eQLuHfCBxMM5d8P4h0jHwwOojyYQGQVLeFpJ/vRcCLg7OsajbwO/72OHQt6RN8U7ycZ75WsACoMhYASXVbWQBWAPeQvhKItC3pu/p1HY/O6vy3kXbn2fvPAqDKWAAk1W3VE9gK0nfhLwnIMQ34CvA03R+TngJOBKYG5H0Vab7DqnksAKqMBUBS3Z5bAFaQJu4dMaTXnwB8ZA05uh0PAB8Cxg8p8/tZfVGxAKgyFgBJdVvbifdcYIuaXnd94EjSk/+qOkbdR3pS4JSaMk8Hzl7L61sAVBkLgKS6reuT9yPAP5MWAarCdNJJ+sF1vO4gYyHwOapbvndKJ/OidbyuBUCVsQBIqlu3l94fAf43sCe934q3KXA46T78pV2+XhVjKXAe8E5gkx4zj+5s67+Rtr2b17MABHIhIEmqxxTgA53xEPBfnXELqUQsJJ1wp5Im9M0EdgZeSrq9MOL+/bGkFQDnktY6uA64BrgeuJm0HYtITzzcuDO2A14J7EVaJEgtYQGQpPptCBzYGW0xmnTb3u7RQVSPJq4QJUmSamYBkCSpQBYASZIKZAGQJKlAFgBJkgpkAZAkqUAWAEmSCmQBkCSpQBYASZIKZAGQJKlAFgBJkgpkAZAkqUAWAEmSCmQBkCSpQBYASZIKZAGQJKlAY6MDVGwkOsBzfBh4Y3QIKXPfBc6JDiG1TW4FYHF0gOfYszMk1ec30QGkNsrtK4DHogNIktQGuRWApl0BkCSpkXIrAHdHB5AkqQ1yKwB/ig4gSVIbWAAkSSpQbgXgXuDh6BCSJDVdbgUA4OroAJIkNV2OBeCy6ACSJDVdjgXgZ9EBJElquhwLwO+B26JDSJLUZDkWgBWktcElSdIa5FgAAL5NKgKSJGk1ci0ANwNXRoeQJKmpci0AAMdHB5AkqalyLgA/Ba6JDiFJUhPlXAAAjosOIElSE+VeAM4Fzo8OIUlS0+ReAACOBJ6KDiFJUpOUUABuAb4QHUKSpCYpoQBAuiPg4ugQkiQ1RSkFYAQ4DLgnOogkSU1QSgEAuB84GHgyOogkSdFKKgAAVwOHAMuig0iSFKm0AgDp1sAP4LMCJEkFK7EAAJwGHAEsjQ4iSVKEUgsApEcGzwEeiw4iSdKwlVwAAC4B9iGtFSBJUjFKLwAA1wK7Ad+PDiJJ0rBYAJLHgEOBd5NuF5QkKWsW/nkpCgAAAz5JREFUgGc7A9gBOAVYHpxFkqTaWAD+1iOkBwjtAPwHrhkgScqQBWDNbgHeB8wCTgUeio0jSVJ1LADrdgvwIWBz4M3Aj4FFoYkkSRrQ2OgALbIEmNcZY4A9gH2BPUlXCbYFxoWlkySpBxaA/iwHft0ZK40FtgamdsYGuH+lYfh9dACpjTxBVWcZcHN0CEmSuuEcAEmSCmQBkCSpQBYASZIKZAGQJKlAFgBJys+TnSGtkQVAkvKyGHgjMBt4MDiLJEnZWAisaOi4l/R485V2Au5sQK41DQuKJKk1mloAbgNmribvNsCCBuSzAEiSWq2JBeAGYMu1ZJ4O/K4BOS0AkqTWaloB+BWwURe5pwJXNiCvBUCS1EpNKgAXA+v3kH086Ymm0bktAJKk1mlKAfgesF4f+ccA32hAfguAJKlVmlAAvs5gt3GPAk5swHZYACRJrRFdAI6vcFuOBkYCt8UCIElqjagCsAx4fw3b825gadA2WQAkSa0RUQCeBg6pcZveRFo62AIgSdIaDLsALAYOGMJ2zQYWDXnbLACSpNYYZgF4CHjFcDYLgJcA99ewHRYASVLrDasA3A3sMqRtWtUs4PY+8loAJElZG0YBuAnYalgbtBozgN+vJpcFQJJUrLoLwDXAJkPbmjWbBvwcC4AkSUC9BeBnwOThbco6TQJ+igVAkqTaCsA8YMIQt6Nb44DvYwGQJBWujgLwLWDsMDeiR2OAf8MCIEkqWNUF4HjS2vxtcDQWAElSoaoqACPAUUPOXoUPAcuxAEiSClNFAVgGvGfYwSv0DmAJFgBJUkEGLQBPAW8ZeurqzQUexwIgSSrEIAXgYeDVw49cm5cx2P6wAEiSWqPfE949wK4Beeu2E3AnFgBJUub6KQC3AjMjwg7J1sACLACSpIz1WgD+AGwRknS4NgOuxQIgScrUzXR/grsSmBoTM8QU4Aq63z+3xMSUJKl3Z9Hdye0cYGJQxkgTSdvezT46KyijJEk9exVpEZ+1ndjOoNlL+9ZtLHA6a99HI+R1R4QkqQBHs/oSMAKcQHuW9q3TKNK+WNPJ/5Nx0SRJ6t9sYD7wAGli4HnA60ITNdMc4FLgsc64mLTvFOz/A0pTIjUeN3OVAAAAAElFTkSuQmCC;imageBackground=none;" vertex="1" parent="1">
                    <mxGeometry x="320" y="285" width="30" height="30" as="geometry"/>
                </mxCell>
                <mxCell id="49" value="" style="shape=image;verticalLabelPosition=bottom;labelBackgroundColor=default;verticalAlign=top;aspect=fixed;imageAspect=0;image=data:image/png,iVBORw0KGgoAAAANSUhEUgAAAgAAAAIACAYAAAD0eNT6AAAABHNCSVQICAgIfAhkiAAAAAlwSFlzAAARuQAAEbkBPuof1QAAABl0RVh0U29mdHdhcmUAd3d3Lmlua3NjYXBlLm9yZ5vuPBoAACAASURBVHic7d139F1lne/xdwopBlKoISDCQCAIKEVRsUBQAZNBxwKIArpc17FcFQsjYBlHXEsR9IKM3LkzFxUsFwtihhKkSR0rIiMCGimCdEIJhJbyy/3jOVkETDll7/Pd+3ner7WelQUhOZ+9Ob+9P2efZz97FBrEVsCewA7ALGBbYDNgUmesHxdNUsutAB4BFnfGncAC4I/AjcAvgSfC0qn1RkUHaJkJwFxgf2Bf0glfkiIsAX4N/Az4CXBdbBy1jQWgO3sB7wIOBqYGZ5Gk1bke+DbwXeDe4CxqAQvA2r0K+Dzp074ktcES4AfAccDNwVnUYBaA1dsbOAnYLTqIJPVpKXA68ClgYWwUNdGY6AANsxFwMnAKsHlwFkkaxBhgD+C9wFPANaSJhRLgFYBVvQU4DZgWHUSSanAl8A7gruggaobR0QEaYD3geOAsPPlLytdrSHcKzIkOomYo/SuAjYFLgEPwaoik/D2PdBVgCXB1cBYFK7kAzAAuBnaPDiJJQzQKeC3pA9CFOC+gWKUWgO2Bq4CZ0UEkKciewHbAf2IJKFKJBWAGcBlpGV9JKtmLgOnAedFBNHylFYAppO/8Z0UHkaSG2IP0tcDlwTk0ZCUVgNHAOaRlfSVJz9iH9KChPwTn0BCVdBvgp4HXR4eQpIb6D7w6WpRSbn3bG7iUsq54SFKvrgNeQVo5UJkr4YQ4HpgPbBIdRJIabjqwHOcDFKGErwCOJd32J0lat2PwmFmE3L8C2JY0qWVCdBBJapELcMng7OV+BeBzePKXpF69AXh1dAjVK+crANuQbmsZGx1EklroQuCA6BCqT85XAD6JJ39J6tf+wEujQ6g+ud4FMBn4DulRv5Kk/owD5kWHUD1yvQLwNtJjLyVJ/XsbsH50CNUj1wJweHQAScrAJOBN0SFUjxwLwHTgNdEhJCkTh0QHUD1yLAD7kud2SVKEfXA+VZZyPFHOjg4gSRnZgPTIYGUmxwKwT3QAScqMH6wylFsBmERa/leSVJ0XRQdQ9XIrANuT9+qGkhRhh+gAql5uBWBWdABJypAfrjKUWwHYOjqAJGVoErBpdAhVK7cCMCU6gCRlanJ0AFUrtwKwQXQAScqUx9fM5FYAXLNakuphAchMbo/LHRcd4DkOB74bHUJSK10CvDY6xComRAdQtXK7AiBJkrpgAZAkqUAWAEmSCmQBkCSpQBYASZIKZAGQJKlAFgBJkgpkAZAkqUAWAEmSCmQBkCSpQBYASZIKZAGQJKlAFgBJkgpkAZAkqUAWAEmSCmQBkCSpQBYASZIKZAGQJKlAFgBJkgpkAZAkqUAWAEmSCmQBkCSpQBYASZIKZAGQJKlAFgBJkgpkAZAkqUAWAEmSCmQBkCSpQBYASZIKZAGQJKlAFgBJkgpkAZAkqUAWAEmSCmQBkCSpQBYASZIKZAGQJKlAFgBJkgpkAZAkqUAWAEmSCmQBkCSpQBYASZIKZAGQJKlAFgBJkgpkAZAkqUAWAEmSCmQBkCSpQBYASZIKZAGQJKlAFgBJkgpkAZAkqUAWAEmSCmQBkCSpQBYASZIKZAGQJKlAFgBJkgpkAZAkqUAWAEmSCmQBkCSpQBYASZIKZAGQJKlAY6MDqFE2AQ4E5gA7AJt1/p3K9ShwF3AHcCEwD7gtNJGkSlgABLAh8EngSGBCcBY1y+TO2BHYH/gqcBbwKeDmwFySBuRXANob+BNwNJ78tW6jgIOAPwDvCc4iaQAWgLK9E7gI2Dg6iFpnPPAN4EvRQST1xwJQrleSDuDjooOo1Y4B3h8dQlLvLABlmgqcTfoUJw3qFODF0SEk9cYCUKZjgU2jQygb6wEnRIeQ1BsLQHmmAh+ODqHs7Ae8PDqEpO5ZAMozB5gYHUJZemt0AEndswCUZ050AGVrbnQASd2zAJRnu+gAyta2pHUCJLWABaA8M6IDKFvjgI2iQ0jqjgVAUpW8AiC1hAWgPHdHB1C2lgALo0NI6o4FoDy3RgdQtm4DVkSHkNQdC0B55kcHULbOjw4gqXsWgPLMB56ODqEs/SQ6gKTuWQDK8xBwanQIZecK4OroEJK6ZwEo0xeBB6NDKBvLgU9Eh5DUGwtAmR4E3g4siw6iLBwF/DY6hKTeWADKdQnwAdKnN6lf/wqcHB1CUu8sAGU7jfRsgIejg6h1lgHHAB+JDiKpPxYAXQRsD3yZtJCLtC6XAHuQ3jOSWmpsdAA1wkLSp7lTgTcBfw/MJD03YEJgLsVbCtxHWuTnQmAecENoIkmVsABoVX8Fvt4ZkqSM+RWAJEkFsgBIklQgC4AkSQWyAEiSVCALgCRJBbIASJJUIAuAJEkFsgBIklQgC4AkSQWyAEiSVCALgCRJBbIASJJUIAuAJEkFsgBIklQgC4AkSQWyAEiSVCALgCRJBbIASJJUIAuAJEkFsgBIklQgC4AkSQWyAEiSVCALgCRJBbIASJJUIAuAJEkFsgBIklQgC4AkSQWyAEiSVCALgCRJBbIASJJUIAuAJEkFsgBIklQgC4AkSQWyAEiSVKCx0QHUODsCc4GZwAxgQmwcqW8PAfcAvwIuAB6JjSM1iwVAAKOAtwL/AuwUG0WqxVLgbOAzwM3BWaRG8CsAbQFcBfwIT/7K13rAIcCNwOdIpVcqmgWgbLsDvwZeGR1EGpL1SFe6zgImxkaRYlkAyvUCYD7pe36pNG8BzsArASqYBaBM6wHzgM2ig0iBDgKOjA4hRbEAlOm9wK7RIaQGOA6LsAplASjPOOCz0SGkhtgA+KfoEFIEC0B5XgtMjw4hNcihOBdABbIAlOfA6ABSw8wA9ogOIQ2bBaA8O0cHkBpol+gA0rBZAMrjbX/S3/LnQsWxAJTnedEBpAby50LFsQCU597oAFID3RMdQBo2C0B57owOIDWQPxcqjgWgPJdEB5AaZilwRXQIadgsAOX5T2BFdAipQa4EHo4OIQ2bBaA8twM/iQ4hNchXowNIESwAZTqWdNlTKt1lwAXRIaQIFoAyLQA+GR1CCvYg6cFYUpEsAOU6Gfj36BBSkCeBtwK3RAeRolgAyvYB4BhgJDqINER3A/vgzH8VzgJQthXAl4H9gOuCs0h1Ww6cBuwO/Do4ixRubHQANcKlpKeh/QPwNmAOMCU0kVSdP5Jufz0DuCk4i9QYFgCtNAKc3Rmjgc2AzYENI0NJfVoG3Eda4e+x4CxSI1kAtDojpLXRXR9dkjLlHABJkgpkAZAkqUAWAEmSCmQBkCSpQBYASZIKZAGQJKlAFgBJkgpkAZAkqUAWAEmSCmQBkCSpQBYASZIKZAGQJKlAFgBJkgpkAZAkqUAWAEmSCmQBkCSpQBYASZIKZAGQJKlAFgBJkgpkAZAkqUAWAEmSCmQBkCSpQBYASZIKZAGQJKlAFgBJkgpkAZAkqUAWAEmSCmQBkCSpQBYASZIKZAGQJKlAFgBJkgpkAZAkqUAWAEmSCmQBkCSpQBYASZIKZAGQJKlAFgBJkgpkAZAkqUAWAEmSCmQBkCSpQGOjA0iSGmUp8BfgYeBRYHHn390bmEk1sABIUrkeBX4J/AL4FbAAuB1YFhlKw2EBkKRm+iJwD3AgMKXCv/dWYB5wDnA1sLzCv1sKcyawokHjsHo3V1IBxgNvBM4lnaz7ORY9CpwGvHLI2aWhsQBIytnWwPGk7+e7OQbdCnwU2CAgqzRUFgBJJZgMHAvcz5pP/EcAY6ICSsNmAZBUkknAZ4BFpGPOXcAHgXGRoaQIFgBJJdoYeBcwMTqI2sO7ACSp/RYCZ0SHULu4EqAkSQWyAEiSVCALgCRJBbIASJJUIAuAJEkFsgBIklQgC4AkSQWyAEiSVCALgCRJBbIASJJUIAuAJEkFsgBIklQgC4AkSQWyAEiSVCALgCRJBRobHUCSCvM8YBdgY9Ix+GFgAXBvZKguTAe2B6YBy4CFwPXAE5GhpJXOBFY0aBxW7+ZKaomxwMHAZcASVn+8uBM4DZgDjImJ+SxjgLmkTHex+sxLSNt0EH6gVDALgKSm2Ru4hd6OHX8FPgFMCsg7CTiqk6GXzDcDrw7IKwEWAEnN8nlgOf0fQ+4HjgHWH0LWDYBjgQcGyLsc+NwQskp/wwIgqQlGASdR3bFkIXAk9Xw1MBo4Arinwrxf7ewDaWgsAJKa4FPUc0y5DphdYc7Znb+zjqxHV5hTWicLgKRoryPNkq/z2PITYLsBMm7X+TvqzLgM2HeAjFJPLACSIm1A75Pn+h1PAycDm/aQbzPga50/O4yMtzOc+QuSBUBSqFMY/nHmMeBLwFZrybUVcDywOCDfST3sP6lvFgBJUXYAlhJ3vFkGnA/8D+AVnfFeYD6D3Ykw6FgCzBxgv0pdsQBIivIj4o85TR3fH2C/qiY+C0CSBjcLeEt0iAY7GHhhdAg9mwVAkgZ3NB5P12YU8LHoEHo237CSNJjNgLdHh2iBw4HNo0PoGRYASRrMx4AJ0SFaYDzw4egQeoYFQJL6Nxl4X3SIFnk/aa0ENYAFQJL6935ganSIFpmGhakxLACS1J/xpAf0qDefwK9MGsECIEn9eTcwIzpEC03HNVIawQIgSb0bQ/okq/4cQz2PNlYPLACS1LsjcHnbQWyLVwHCWQAkqTcbkh6so8F8BdgoOkTJLACS1Juv09sjeLV6G5MeZ6wgFgBJ6s444GvAodFBMnIYqQSMiw5SIguAJK3ZaGBX0lr/NwIfiY2TpSNJ+/aTpH3teWlIxkYHkKRgY0hr1G+zyti68+uLSIvXqF7bAl/ujIeB64AFwJ+B24G7O7/eCywPypgdC4CkUswindB3IZ3cXwBsRbqX32Nhc0wDZnfGcy0jlYE7SIXgNuD3nfGnYQXMhW96SbkaD8wF3kY6mUyPjaMKjCWVtq2AVz3n9+4FLgPOAs4Hnh5uNEU7E1jRoOF9rtLwTQG+ADxE/DHAETMeAo4jvRe0Bk62kJSTQ4Bbgc/gd/clmwZ8FrgFODg4S2NZACTlYDRwCvB90kI9EqSFhn5Aun1zVHCWxrEASMrBicCHo0OosT4CnBAdomksAJLa7l3Ax6NDqPGOIr1X1GEBkNRmk3FdfnXvBGBqdIimsABIarOj8PY+dW9T0sqDwgIgqd1cl1+9OhwnBAIWAEnttSuwXXQItc62pNUgi2cBkNRWu0UHUGu9ODpAE1gAJLXVrOgAaq0dowM0gQVAUls5m1v98r2DBUBSe02MDqDW8r2DBUBSey2JDqDW8kmBWAAktdfD0QHUWr53sABIaq/7owOotR6IDtAEFgBJbXVLdAC11s3RAZrAAiCprf4cHUCtZQHAAiCpvW4CnowOodZ5AlgQHaIJLACS2moZcH10CLXOf5PeO8WzAEhqs99GB1DrXBsdoCksAJLazAKgXlkAOiwAktrsmugAah1LY8fY6ACSNIAbSBMBS17adQS4gzSx7QHgceCRzu9NBdYHNga2B14AjArI2BRPkN4zwgIgqd2WAb8D9ooOMkSPA1cClwGXkyZCPtXln50I7ALsA8wGXgM8r/KEzXUtTgDM1pnAigaNw+rdXEnAqcT/rNc9lgMXkY4pk6rZbUC6OnAEcHHnNaK3s+7xr9Xstjw4B0BS290YHaBGS4HvADsB+wHfJV0BqMpi4NvA64GZwCnk/aCcnN8rPbMASGq7XL/T/T6wHekT+h+H8Hq3AkcCs4CzhvB6ESwAq7AASGq7e6MDVOzPpE/kh5Im9w3bX4CDgAPI73kLub1XBmIBkNR2OT3a9TvA7sAl0UGAC4Fdge9FB6nQg9EBmsQCIKntlkYHqMDTwHtIl/sXB2dZ1WLSxMN/BJYEZ6lCDu+VylgAJLXdltEBBvQYMBf4VnSQtfi/wIE0q5z0o+3vlUpZACS13VujAwzgQdL9+JdGB+nCRcC+wEPRQQYwNzqA6uM6AFJZZpA+QUf/rPczFgMvq36X1G4v0q2I0fuvn7EQ2LT6XdJOXgGQ1FYTgB+RFrNpm6XA24BfRQfpw8+BQ2jninobAWcD46ODNIEFQFIbjQHOoL1LAH8K+Gl0iAGcB/xzdIg+vRI4nfQeUkb8CkDK3zjgh8T/fPc7ziePB/KMAs4hfn/2O+aRriIpExYAKW+TSPenR/9s9zseID2ZLxebkiYyRu/XfscFlPUwpGfxKwBJbTGVdPLfLzrIAI4mTUTLxf2krzPa6gDSUxU3jA6iwXkFQMrTdNJjf6N/pgcZ/0Uel/6fazRpMmP0/h1kXAtsVvWOaTqvAEhquq2BK0nL0rbZp0knm9yMAJ+JDjGg3YBfkB6+VAwLgKQm2wm4mvSo2jb7JXB5dIgaXUy6PbDNtgGuAl4cHWRYLACSmmov0sl/i+ggFfhSdIAh+Ep0gApMJ80JaOMCTT2zAEhqot1I95pPjQ5SgfuA+dEhhuBc0ra23TTSZNOXRAepmwVAUtPMIq2NPy06SEW+RztXzevVMuAH0SEqMoW0UFPbv3paKwuApCaZRlpcJpeTP6S7k0qR07ZuRLqqkcNVqNWyAEhqkm+R16euh0i3mJXiN8Ci6BAV2gH4ZnSIulgAJDXFu4A3RYeo2BWk2+RKsZx0y2ZO3gy8MzpEHSwAkppgEnBidIgaXBUdIEBuBQDgq2S4ZLAFQFITfBDYJDpEDW6KDhDgj9EBarAZ8L7oEFWzAEhqgg9GB6jJn6IDBMixAAB8KDpA1SwAkqLtTFruNzdLgdujQwT4C2kuQG7+DnhhdIgqWQAkRZsdHaAmj1HWBMCVlpG2PUdZvVctAJKiPT86QE1yPQl2Y3F0gJpk9V61AEiKtml0gJo8Hh0gUK7lZ3p0gCpZACRFy/VkMS46QKDx0QFqktMiRxYASeHuiQ5Qk/WjAwSaHB2gJlm9Vy0AkqJdFx2gJhtEBwiUa/nJ6r1qAZAU7VLynDQ2CdgwOkSATYAJ0SFqsBi4PDpElSwAkqI9DcyLDlGTHaIDBMh1m88GnooOUSULgKQm+CJ53jO/fXSAADkWgOXAl6JDVM0CIKkJbgLOiA5Rgz2jAwR4aXSAGpxOhkscWwAkNcXHgL9Gh6hYVivHdWnf6AAVuwv4p+gQdbAASGqKRcC7SGvo52IWsHl0iCHaEpgZHaJCS4HDgIejg9TBAiCpSS4DPhAdokKjgH+IDjFEb44OULGPkNnM/1VZACQ1zTfIa8LV4dEBhiinbf0C8H+iQ6h7ZwIrGjQOq3dzpaydRPzPcBVjhDLuBtiR+H1d1Tix4n3TSF4BkNRUHwOOiQ5RgVHAkdEhhuCj0QEq8mUynfSXO68ASPn5n6T7sKN/ngcZTwEzqt4xDbIlaRuj9/MgYwT4eNU7psm8AiCp6U6l/XcHjCfvT5XH0O4nAK6c7f+/ooOof14BkPI1F3iC+J/rfscSYKfK90q8F5NOoNH7t9/xBDCn8r3SAl4BkNQW5wMH0N5nsq9HmlU+KjpIhUYBXwPGRgfp02LgQGB+dJAIFgBJbXIl8FrggeggfXoVaU5DLo4E9o4O0acHSNkvjQ6iavgVgFSGHYE7if8Z72c8Bexe/S4ZupeSnuQYvT/7GXeSVmksmlcAJLXRTcDfA49FB+nDeOAHwEbRQQawCWkbxkUH6cNjpPkk2T3cp1cWAEltdR3pKtuK6CB92A44D5gUHaQP65PmY2wTHaQPK4B3Av8dHaQJLACS2uwc0ifRNno58EPa9Sl6PHAW7X3k7w+Ac6NDNIUFQFLbnRYdYABzSJ+mN4gO0oXJpNny+0cHGUCb3yuVswBIarsbowMM6HWkpyBOjw6yFjNIT8XbNzjHoP4QHaBJLACS2u7p6AAV2AP4HTA7OshqvJ6UbbfoIBXI4b1SGQuApLabGh2gItOBi4HjaMayuhOALwI/BTYNzlKVXN4rlbAASGq7DaMDVGgM8FngemC/wBxvIF0uP5a8zhNtvvWycjn9j5VUpu2jA9RgJnAhcAFp9cBheXXndecD2w7xdYdlZnSAJrEASGq7F0YHqNEBwFWkCXhvBybW8BoTgUOBK0hLLUdeeahbjg9j6ltbH+AgSSvtEh1gCPbujEXAj0lXBi4HFvb5920C7EO6DfEtpFv8SrBzdIAmsQBIaruXRAcYoinAezpjBWmuwPWkZW0XkArBIuDRzn8/ufNnNiZ9VbIjqTDtTF5PJexWWxcwqoUFQFKbbUG6R71Eo4AXdYa6s/L9cnd0kCZwDoCkNivp07+q4XumwwIgqc08mKtXe0QHaAoLgKQ282CuXu0eHaApLACS2iyH5Wk1XF416rAASGqrLWj2A3TUTNOBzaNDNIEFQFJb5bwAkOo1KzpAE1gAJLVVjkvVajh872ABkNReW0YHUGs9PzpAE1gAJLVVTk8B1HD53sECIKm91o8OoNbaIDpAE1gAJLXV0ugAaq2nowM0gQVAUls9Hh1ArfVkdIAmsABIaqu/RAdQa90aHaAJLACS2ur66ABqrRuiAzSBBUBSW/0cWBwdQq3zOPDL6BBNYAGQ1FaPA+dFh1DrzMP5I4AFQFK7nQSMRIdQa4wAJ0eHaAoLgKQ2+zXw7egQao3TgWuiQzSFBUBS230cuDE6hBrvBuCo6BBNYgGQ1HYPA28A7ogOosa6HTiA9F5RhwVAUg7uAPYAfhodRI3zM+BlwJ3RQZrGAiApFwuBucB7SJ/4VLbbgHcDrwfui43STBYASTkZAb4FbA+8k3RFYHloIg3TMmA+cCgwCzgD7xJZo7HRASSpBkuA/9cZU4DXAK8GdgV2BjaPi6YK3QX8AbgOuKozHg1N1CIWAEm5WwSc2xkrTQS2BrbqjC07v87o/Pp3wLihptRzjQD3kC7l30Z69sPtwF9Jcz5ux4f6DMQCIKlETwI3dcbqjCEVhN1JVw/2B2YOJVm5FgAXAVeSPtHfgY/tVQ/OBFY0aBxW7+ZKGqL9SU+Riz6u5DZuAfbr4f+DKuIkQEnqzoXAXniHQZVuI+3Ti6KDlMgCIEndu5d0ZW9FdJAMjJD2pbfoBbEASFJvriatKa/BfJP0SGcFsQBIUu+OxRnog3gC+HR0iNJZACSpd/fhVYBBfBO4PzpE6SwAktSfE0krz6k3y4GTo0PIAiBJ/boN+GF0iBY6k3Trn4JZACSpf1/GOwJ6sYK0z9QAFgBJ6t/vgQuiQ7TIfNLa/WoAC4AkDeYr0QFa5IToAHqGBUCSBnMZ8KvoEC3wG9I6/2oIC4AkDe6k6AAt4Hf/DWMBkKTB/Ri4OTpEg/0JmBcdQs/m44AlaXDLgM+SbnGLtBy4Brix888vBF5CerxxpM+Sskm18XHAkqKMJp18I441dwL/Amy5mlzP7/zeXUHZfgmM6mlPSn2wAEiKtAfpasCwjjEPAEcDE7vINg74R+DuIeZbBuze1Z6TBmQBkBTtBOo/tjwOfB6Y1Ee+ScBxpAfy1J3z+D7ySX2xAEiKth5wFfUcU0ZIx7mtKsi5VefvGqkp6+U4z0xDZAGQ1ASbAwuo9njyC+AVNWR9Bel7+iqz/hHYrIas0hpZACQ1xeak2fhVnEwPpd6JdKOAd5Bu1xs07w3A9BqzSqtlAZBUt216+G8nA/9O/yfSIxjuZfTRwEH0X1x+CEzr4fV2qCq4ZAGQVLcr6W7W/ar2Ay5m3ceMx4GzgDnELtQ2GphLWuCom8mCFwOv7/E1JgE/ryiv+uAEDUnqzQuBLwEf7eHPXNQZOwCvBXYFNiUdgx8iXXr/LXAF8GQFGVcu/NPv4jsjwPmd8Txgb9ItjtsDG5Ju77sfuA64lJS/VyfhFQBVyCsAkuq2kHSCnBMdZDVGA4eQLuHfCBxMM5d8P4h0jHwwOojyYQGQVLeFpJ/vRcCLg7OsajbwO/72OHQt6RN8U7ycZ75WsACoMhYASXVbWQBWAPeQvhKItC3pu/p1HY/O6vy3kXbn2fvPAqDKWAAk1W3VE9gK0nfhLwnIMQ34CvA03R+TngJOBKYG5H0Vab7DqnksAKqMBUBS3Z5bAFaQJu4dMaTXnwB8ZA05uh0PAB8Cxg8p8/tZfVGxAKgyFgBJdVvbifdcYIuaXnd94EjSk/+qOkbdR3pS4JSaMk8Hzl7L61sAVBkLgKS6reuT9yPAP5MWAarCdNJJ+sF1vO4gYyHwOapbvndKJ/OidbyuBUCVsQBIqlu3l94fAf43sCe934q3KXA46T78pV2+XhVjKXAe8E5gkx4zj+5s67+Rtr2b17MABHIhIEmqxxTgA53xEPBfnXELqUQsJJ1wp5Im9M0EdgZeSrq9MOL+/bGkFQDnktY6uA64BrgeuJm0HYtITzzcuDO2A14J7EVaJEgtYQGQpPptCBzYGW0xmnTb3u7RQVSPJq4QJUmSamYBkCSpQBYASZIKZAGQJKlAFgBJkgpkAZAkqUAWAEmSCmQBkCSpQBYASZIKZAGQJKlAFgBJkgpkAZAkqUAWAEmSCmQBkCSpQBYASZIKZAGQJKlAY6MDVGwkOsBzfBh4Y3QIKXPfBc6JDiG1TW4FYHF0gOfYszMk1ec30QGkNsrtK4DHogNIktQGuRWApl0BkCSpkXIrAHdHB5AkqQ1yKwB/ig4gSVIbWAAkSSpQbgXgXuDh6BCSJDVdbgUA4OroAJIkNV2OBeCy6ACSJDVdjgXgZ9EBJElquhwLwO+B26JDSJLUZDkWgBWktcElSdIa5FgAAL5NKgKSJGk1ci0ANwNXRoeQJKmpci0AAMdHB5AkqalyLgA/Ba6JDiFJUhPlXAAAjosOIElSE+VeAM4Fzo8OIUlS0+ReAACOBJ6KDiFJUpOUUABuAb4QHUKSpCYpoQBAuiPg4ugQkiQ1RSkFYAQ4DLgnOogkSU1QSgEAuB84GHgyOogkSdFKKgAAVwOHAMuig0iSFKm0AgDp1sAP4LMCJEkFK7EAAJwGHAEsjQ4iSVKEUgsApEcGzwEeiw4iSdKwlVwAAC4B9iGtFSBJUjFKLwAA1wK7Ad+PDiJJ0rBYAJLHgEOBd5NuF5QkKWsW/nkpCgAAAz5JREFUgGc7A9gBOAVYHpxFkqTaWAD+1iOkBwjtAPwHrhkgScqQBWDNbgHeB8wCTgUeio0jSVJ1LADrdgvwIWBz4M3Aj4FFoYkkSRrQ2OgALbIEmNcZY4A9gH2BPUlXCbYFxoWlkySpBxaA/iwHft0ZK40FtgamdsYGuH+lYfh9dACpjTxBVWcZcHN0CEmSuuEcAEmSCmQBkCSpQBYASZIKZAGQJKlAFgBJys+TnSGtkQVAkvKyGHgjMBt4MDiLJEnZWAisaOi4l/R485V2Au5sQK41DQuKJKk1mloAbgNmribvNsCCBuSzAEiSWq2JBeAGYMu1ZJ4O/K4BOS0AkqTWaloB+BWwURe5pwJXNiCvBUCS1EpNKgAXA+v3kH086Ymm0bktAJKk1mlKAfgesF4f+ccA32hAfguAJKlVmlAAvs5gt3GPAk5swHZYACRJrRFdAI6vcFuOBkYCt8UCIElqjagCsAx4fw3b825gadA2WQAkSa0RUQCeBg6pcZveRFo62AIgSdIaDLsALAYOGMJ2zQYWDXnbLACSpNYYZgF4CHjFcDYLgJcA99ewHRYASVLrDasA3A3sMqRtWtUs4PY+8loAJElZG0YBuAnYalgbtBozgN+vJpcFQJJUrLoLwDXAJkPbmjWbBvwcC4AkSUC9BeBnwOThbco6TQJ+igVAkqTaCsA8YMIQt6Nb44DvYwGQJBWujgLwLWDsMDeiR2OAf8MCIEkqWNUF4HjS2vxtcDQWAElSoaoqACPAUUPOXoUPAcuxAEiSClNFAVgGvGfYwSv0DmAJFgBJUkEGLQBPAW8ZeurqzQUexwIgSSrEIAXgYeDVw49cm5cx2P6wAEiSWqPfE949wK4Beeu2E3AnFgBJUub6KQC3AjMjwg7J1sACLACSpIz1WgD+AGwRknS4NgOuxQIgScrUzXR/grsSmBoTM8QU4Aq63z+3xMSUJKl3Z9Hdye0cYGJQxkgTSdvezT46KyijJEk9exVpEZ+1ndjOoNlL+9ZtLHA6a99HI+R1R4QkqQBHs/oSMAKcQHuW9q3TKNK+WNPJ/5Nx0SRJ6t9sYD7wAGli4HnA60ITNdMc4FLgsc64mLTvFOz/A0pTIjUeN3OVAAAAAElFTkSuQmCC;imageBackground=none;" vertex="1" parent="1">
                    <mxGeometry x="430" y="250" width="30" height="30" as="geometry"/>
                </mxCell>
                <mxCell id="50" value="" style="shape=image;verticalLabelPosition=bottom;labelBackgroundColor=default;verticalAlign=top;aspect=fixed;imageAspect=0;image=data:image/png,iVBORw0KGgoAAAANSUhEUgAAAgAAAAIACAYAAAD0eNT6AAAABHNCSVQICAgIfAhkiAAAAAlwSFlzAAARuQAAEbkBPuof1QAAABl0RVh0U29mdHdhcmUAd3d3Lmlua3NjYXBlLm9yZ5vuPBoAACAASURBVHic7d139F1lne/xdwopBlKoISDCQCAIKEVRsUBQAZNBxwKIArpc17FcFQsjYBlHXEsR9IKM3LkzFxUsFwtihhKkSR0rIiMCGimCdEIJhJbyy/3jOVkETDll7/Pd+3ner7WelQUhOZ+9Ob+9P2efZz97FBrEVsCewA7ALGBbYDNgUmesHxdNUsutAB4BFnfGncAC4I/AjcAvgSfC0qn1RkUHaJkJwFxgf2Bf0glfkiIsAX4N/Az4CXBdbBy1jQWgO3sB7wIOBqYGZ5Gk1bke+DbwXeDe4CxqAQvA2r0K+Dzp074ktcES4AfAccDNwVnUYBaA1dsbOAnYLTqIJPVpKXA68ClgYWwUNdGY6AANsxFwMnAKsHlwFkkaxBhgD+C9wFPANaSJhRLgFYBVvQU4DZgWHUSSanAl8A7gruggaobR0QEaYD3geOAsPPlLytdrSHcKzIkOomYo/SuAjYFLgEPwaoik/D2PdBVgCXB1cBYFK7kAzAAuBnaPDiJJQzQKeC3pA9CFOC+gWKUWgO2Bq4CZ0UEkKciewHbAf2IJKFKJBWAGcBlpGV9JKtmLgOnAedFBNHylFYAppO/8Z0UHkaSG2IP0tcDlwTk0ZCUVgNHAOaRlfSVJz9iH9KChPwTn0BCVdBvgp4HXR4eQpIb6D7w6WpRSbn3bG7iUsq54SFKvrgNeQVo5UJkr4YQ4HpgPbBIdRJIabjqwHOcDFKGErwCOJd32J0lat2PwmFmE3L8C2JY0qWVCdBBJapELcMng7OV+BeBzePKXpF69AXh1dAjVK+crANuQbmsZGx1EklroQuCA6BCqT85XAD6JJ39J6tf+wEujQ6g+ud4FMBn4DulRv5Kk/owD5kWHUD1yvQLwNtJjLyVJ/XsbsH50CNUj1wJweHQAScrAJOBN0SFUjxwLwHTgNdEhJCkTh0QHUD1yLAD7kud2SVKEfXA+VZZyPFHOjg4gSRnZgPTIYGUmxwKwT3QAScqMH6wylFsBmERa/leSVJ0XRQdQ9XIrANuT9+qGkhRhh+gAql5uBWBWdABJypAfrjKUWwHYOjqAJGVoErBpdAhVK7cCMCU6gCRlanJ0AFUrtwKwQXQAScqUx9fM5FYAXLNakuphAchMbo/LHRcd4DkOB74bHUJSK10CvDY6xComRAdQtXK7AiBJkrpgAZAkqUAWAEmSCmQBkCSpQBYASZIKZAGQJKlAFgBJkgpkAZAkqUAWAEmSCmQBkCSpQBYASZIKZAGQJKlAFgBJkgpkAZAkqUAWAEmSCmQBkCSpQBYASZIKZAGQJKlAFgBJkgpkAZAkqUAWAEmSCmQBkCSpQBYASZIKZAGQJKlAFgBJkgpkAZAkqUAWAEmSCmQBkCSpQBYASZIKZAGQJKlAFgBJkgpkAZAkqUAWAEmSCmQBkCSpQBYASZIKZAGQJKlAFgBJkgpkAZAkqUAWAEmSCmQBkCSpQBYASZIKZAGQJKlAFgBJkgpkAZAkqUAWAEmSCmQBkCSpQBYASZIKZAGQJKlAFgBJkgpkAZAkqUAWAEmSCmQBkCSpQBYASZIKZAGQJKlAFgBJkgpkAZAkqUAWAEmSCmQBkCSpQBYASZIKZAGQJKlAY6MDqFE2AQ4E5gA7AJt1/p3K9ShwF3AHcCEwD7gtNJGkSlgABLAh8EngSGBCcBY1y+TO2BHYH/gqcBbwKeDmwFySBuRXANob+BNwNJ78tW6jgIOAPwDvCc4iaQAWgLK9E7gI2Dg6iFpnPPAN4EvRQST1xwJQrleSDuDjooOo1Y4B3h8dQlLvLABlmgqcTfoUJw3qFODF0SEk9cYCUKZjgU2jQygb6wEnRIeQ1BsLQHmmAh+ODqHs7Ae8PDqEpO5ZAMozB5gYHUJZemt0AEndswCUZ050AGVrbnQASd2zAJRnu+gAyta2pHUCJLWABaA8M6IDKFvjgI2iQ0jqjgVAUpW8AiC1hAWgPHdHB1C2lgALo0NI6o4FoDy3RgdQtm4DVkSHkNQdC0B55kcHULbOjw4gqXsWgPLMB56ODqEs/SQ6gKTuWQDK8xBwanQIZecK4OroEJK6ZwEo0xeBB6NDKBvLgU9Eh5DUGwtAmR4E3g4siw6iLBwF/DY6hKTeWADKdQnwAdKnN6lf/wqcHB1CUu8sAGU7jfRsgIejg6h1lgHHAB+JDiKpPxYAXQRsD3yZtJCLtC6XAHuQ3jOSWmpsdAA1wkLSp7lTgTcBfw/MJD03YEJgLsVbCtxHWuTnQmAecENoIkmVsABoVX8Fvt4ZkqSM+RWAJEkFsgBIklQgC4AkSQWyAEiSVCALgCRJBbIASJJUIAuAJEkFsgBIklQgC4AkSQWyAEiSVCALgCRJBbIASJJUIAuAJEkFsgBIklQgC4AkSQWyAEiSVCALgCRJBbIASJJUIAuAJEkFsgBIklQgC4AkSQWyAEiSVCALgCRJBbIASJJUIAuAJEkFsgBIklQgC4AkSQWyAEiSVCALgCRJBbIASJJUIAuAJEkFsgBIklQgC4AkSQWyAEiSVKCx0QHUODsCc4GZwAxgQmwcqW8PAfcAvwIuAB6JjSM1iwVAAKOAtwL/AuwUG0WqxVLgbOAzwM3BWaRG8CsAbQFcBfwIT/7K13rAIcCNwOdIpVcqmgWgbLsDvwZeGR1EGpL1SFe6zgImxkaRYlkAyvUCYD7pe36pNG8BzsArASqYBaBM6wHzgM2ig0iBDgKOjA4hRbEAlOm9wK7RIaQGOA6LsAplASjPOOCz0SGkhtgA+KfoEFIEC0B5XgtMjw4hNcihOBdABbIAlOfA6ABSw8wA9ogOIQ2bBaA8O0cHkBpol+gA0rBZAMrjbX/S3/LnQsWxAJTnedEBpAby50LFsQCU597oAFID3RMdQBo2C0B57owOIDWQPxcqjgWgPJdEB5AaZilwRXQIadgsAOX5T2BFdAipQa4EHo4OIQ2bBaA8twM/iQ4hNchXowNIESwAZTqWdNlTKt1lwAXRIaQIFoAyLQA+GR1CCvYg6cFYUpEsAOU6Gfj36BBSkCeBtwK3RAeRolgAyvYB4BhgJDqINER3A/vgzH8VzgJQthXAl4H9gOuCs0h1Ww6cBuwO/Do4ixRubHQANcKlpKeh/QPwNmAOMCU0kVSdP5Jufz0DuCk4i9QYFgCtNAKc3Rmjgc2AzYENI0NJfVoG3Eda4e+x4CxSI1kAtDojpLXRXR9dkjLlHABJkgpkAZAkqUAWAEmSCmQBkCSpQBYASZIKZAGQJKlAFgBJkgpkAZAkqUAWAEmSCmQBkCSpQBYASZIKZAGQJKlAFgBJkgpkAZAkqUAWAEmSCmQBkCSpQBYASZIKZAGQJKlAFgBJkgpkAZAkqUAWAEmSCmQBkCSpQBYASZIKZAGQJKlAFgBJkgpkAZAkqUAWAEmSCmQBkCSpQBYASZIKZAGQJKlAFgBJkgpkAZAkqUAWAEmSCmQBkCSpQBYASZIKZAGQJKlAFgBJkgpkAZAkqUAWAEmSCmQBkCSpQGOjA0iSGmUp8BfgYeBRYHHn390bmEk1sABIUrkeBX4J/AL4FbAAuB1YFhlKw2EBkKRm+iJwD3AgMKXCv/dWYB5wDnA1sLzCv1sKcyawokHjsHo3V1IBxgNvBM4lnaz7ORY9CpwGvHLI2aWhsQBIytnWwPGk7+e7OQbdCnwU2CAgqzRUFgBJJZgMHAvcz5pP/EcAY6ICSsNmAZBUkknAZ4BFpGPOXcAHgXGRoaQIFgBJJdoYeBcwMTqI2sO7ACSp/RYCZ0SHULu4EqAkSQWyAEiSVCALgCRJBbIASJJUIAuAJEkFsgBIklQgC4AkSQWyAEiSVCALgCRJBbIASJJUIAuAJEkFsgBIklQgC4AkSQWyAEiSVCALgCRJBRobHUCSCvM8YBdgY9Ix+GFgAXBvZKguTAe2B6YBy4CFwPXAE5GhpJXOBFY0aBxW7+ZKaomxwMHAZcASVn+8uBM4DZgDjImJ+SxjgLmkTHex+sxLSNt0EH6gVDALgKSm2Ru4hd6OHX8FPgFMCsg7CTiqk6GXzDcDrw7IKwEWAEnN8nlgOf0fQ+4HjgHWH0LWDYBjgQcGyLsc+NwQskp/wwIgqQlGASdR3bFkIXAk9Xw1MBo4Arinwrxf7ewDaWgsAJKa4FPUc0y5DphdYc7Znb+zjqxHV5hTWicLgKRoryPNkq/z2PITYLsBMm7X+TvqzLgM2HeAjFJPLACSIm1A75Pn+h1PAycDm/aQbzPga50/O4yMtzOc+QuSBUBSqFMY/nHmMeBLwFZrybUVcDywOCDfST3sP6lvFgBJUXYAlhJ3vFkGnA/8D+AVnfFeYD6D3Ykw6FgCzBxgv0pdsQBIivIj4o85TR3fH2C/qiY+C0CSBjcLeEt0iAY7GHhhdAg9mwVAkgZ3NB5P12YU8LHoEHo237CSNJjNgLdHh2iBw4HNo0PoGRYASRrMx4AJ0SFaYDzw4egQeoYFQJL6Nxl4X3SIFnk/aa0ENYAFQJL6935ganSIFpmGhakxLACS1J/xpAf0qDefwK9MGsECIEn9eTcwIzpEC03HNVIawQIgSb0bQ/okq/4cQz2PNlYPLACS1LsjcHnbQWyLVwHCWQAkqTcbkh6so8F8BdgoOkTJLACS1Juv09sjeLV6G5MeZ6wgFgBJ6s444GvAodFBMnIYqQSMiw5SIguAJK3ZaGBX0lr/NwIfiY2TpSNJ+/aTpH3teWlIxkYHkKRgY0hr1G+zyti68+uLSIvXqF7bAl/ujIeB64AFwJ+B24G7O7/eCywPypgdC4CkUswindB3IZ3cXwBsRbqX32Nhc0wDZnfGcy0jlYE7SIXgNuD3nfGnYQXMhW96SbkaD8wF3kY6mUyPjaMKjCWVtq2AVz3n9+4FLgPOAs4Hnh5uNEU7E1jRoOF9rtLwTQG+ADxE/DHAETMeAo4jvRe0Bk62kJSTQ4Bbgc/gd/clmwZ8FrgFODg4S2NZACTlYDRwCvB90kI9EqSFhn5Aun1zVHCWxrEASMrBicCHo0OosT4CnBAdomksAJLa7l3Ax6NDqPGOIr1X1GEBkNRmk3FdfnXvBGBqdIimsABIarOj8PY+dW9T0sqDwgIgqd1cl1+9OhwnBAIWAEnttSuwXXQItc62pNUgi2cBkNRWu0UHUGu9ODpAE1gAJLXVrOgAaq0dowM0gQVAUls5m1v98r2DBUBSe02MDqDW8r2DBUBSey2JDqDW8kmBWAAktdfD0QHUWr53sABIaq/7owOotR6IDtAEFgBJbXVLdAC11s3RAZrAAiCprf4cHUCtZQHAAiCpvW4CnowOodZ5AlgQHaIJLACS2moZcH10CLXOf5PeO8WzAEhqs99GB1DrXBsdoCksAJLazAKgXlkAOiwAktrsmugAah1LY8fY6ACSNIAbSBMBS17adQS4gzSx7QHgceCRzu9NBdYHNga2B14AjArI2BRPkN4zwgIgqd2WAb8D9ooOMkSPA1cClwGXkyZCPtXln50I7ALsA8wGXgM8r/KEzXUtTgDM1pnAigaNw+rdXEnAqcT/rNc9lgMXkY4pk6rZbUC6OnAEcHHnNaK3s+7xr9Xstjw4B0BS290YHaBGS4HvADsB+wHfJV0BqMpi4NvA64GZwCnk/aCcnN8rPbMASGq7XL/T/T6wHekT+h+H8Hq3AkcCs4CzhvB6ESwAq7AASGq7e6MDVOzPpE/kh5Im9w3bX4CDgAPI73kLub1XBmIBkNR2OT3a9TvA7sAl0UGAC4Fdge9FB6nQg9EBmsQCIKntlkYHqMDTwHtIl/sXB2dZ1WLSxMN/BJYEZ6lCDu+VylgAJLXdltEBBvQYMBf4VnSQtfi/wIE0q5z0o+3vlUpZACS13VujAwzgQdL9+JdGB+nCRcC+wEPRQQYwNzqA6uM6AFJZZpA+QUf/rPczFgMvq36X1G4v0q2I0fuvn7EQ2LT6XdJOXgGQ1FYTgB+RFrNpm6XA24BfRQfpw8+BQ2jninobAWcD46ODNIEFQFIbjQHOoL1LAH8K+Gl0iAGcB/xzdIg+vRI4nfQeUkb8CkDK3zjgh8T/fPc7ziePB/KMAs4hfn/2O+aRriIpExYAKW+TSPenR/9s9zseID2ZLxebkiYyRu/XfscFlPUwpGfxKwBJbTGVdPLfLzrIAI4mTUTLxf2krzPa6gDSUxU3jA6iwXkFQMrTdNJjf6N/pgcZ/0Uel/6fazRpMmP0/h1kXAtsVvWOaTqvAEhquq2BK0nL0rbZp0knm9yMAJ+JDjGg3YBfkB6+VAwLgKQm2wm4mvSo2jb7JXB5dIgaXUy6PbDNtgGuAl4cHWRYLACSmmov0sl/i+ggFfhSdIAh+Ep0gApMJ80JaOMCTT2zAEhqot1I95pPjQ5SgfuA+dEhhuBc0ra23TTSZNOXRAepmwVAUtPMIq2NPy06SEW+RztXzevVMuAH0SEqMoW0UFPbv3paKwuApCaZRlpcJpeTP6S7k0qR07ZuRLqqkcNVqNWyAEhqkm+R16euh0i3mJXiN8Ci6BAV2gH4ZnSIulgAJDXFu4A3RYeo2BWk2+RKsZx0y2ZO3gy8MzpEHSwAkppgEnBidIgaXBUdIEBuBQDgq2S4ZLAFQFITfBDYJDpEDW6KDhDgj9EBarAZ8L7oEFWzAEhqgg9GB6jJn6IDBMixAAB8KDpA1SwAkqLtTFruNzdLgdujQwT4C2kuQG7+DnhhdIgqWQAkRZsdHaAmj1HWBMCVlpG2PUdZvVctAJKiPT86QE1yPQl2Y3F0gJpk9V61AEiKtml0gJo8Hh0gUK7lZ3p0gCpZACRFy/VkMS46QKDx0QFqktMiRxYASeHuiQ5Qk/WjAwSaHB2gJlm9Vy0AkqJdFx2gJhtEBwiUa/nJ6r1qAZAU7VLynDQ2CdgwOkSATYAJ0SFqsBi4PDpElSwAkqI9DcyLDlGTHaIDBMh1m88GnooOUSULgKQm+CJ53jO/fXSAADkWgOXAl6JDVM0CIKkJbgLOiA5Rgz2jAwR4aXSAGpxOhkscWwAkNcXHgL9Gh6hYVivHdWnf6AAVuwv4p+gQdbAASGqKRcC7SGvo52IWsHl0iCHaEpgZHaJCS4HDgIejg9TBAiCpSS4DPhAdokKjgH+IDjFEb44OULGPkNnM/1VZACQ1zTfIa8LV4dEBhiinbf0C8H+iQ6h7ZwIrGjQOq3dzpaydRPzPcBVjhDLuBtiR+H1d1Tix4n3TSF4BkNRUHwOOiQ5RgVHAkdEhhuCj0QEq8mUynfSXO68ASPn5n6T7sKN/ngcZTwEzqt4xDbIlaRuj9/MgYwT4eNU7psm8AiCp6U6l/XcHjCfvT5XH0O4nAK6c7f+/ooOof14BkPI1F3iC+J/rfscSYKfK90q8F5NOoNH7t9/xBDCn8r3SAl4BkNQW5wMH0N5nsq9HmlU+KjpIhUYBXwPGRgfp02LgQGB+dJAIFgBJbXIl8FrggeggfXoVaU5DLo4E9o4O0acHSNkvjQ6iavgVgFSGHYE7if8Z72c8Bexe/S4ZupeSnuQYvT/7GXeSVmksmlcAJLXRTcDfA49FB+nDeOAHwEbRQQawCWkbxkUH6cNjpPkk2T3cp1cWAEltdR3pKtuK6CB92A44D5gUHaQP65PmY2wTHaQPK4B3Av8dHaQJLACS2uwc0ifRNno58EPa9Sl6PHAW7X3k7w+Ac6NDNIUFQFLbnRYdYABzSJ+mN4gO0oXJpNny+0cHGUCb3yuVswBIarsbowMM6HWkpyBOjw6yFjNIT8XbNzjHoP4QHaBJLACS2u7p6AAV2AP4HTA7OshqvJ6UbbfoIBXI4b1SGQuApLabGh2gItOBi4HjaMayuhOALwI/BTYNzlKVXN4rlbAASGq7DaMDVGgM8FngemC/wBxvIF0uP5a8zhNtvvWycjn9j5VUpu2jA9RgJnAhcAFp9cBheXXndecD2w7xdYdlZnSAJrEASGq7F0YHqNEBwFWkCXhvBybW8BoTgUOBK0hLLUdeeahbjg9j6ltbH+AgSSvtEh1gCPbujEXAj0lXBi4HFvb5920C7EO6DfEtpFv8SrBzdIAmsQBIaruXRAcYoinAezpjBWmuwPWkZW0XkArBIuDRzn8/ufNnNiZ9VbIjqTDtTF5PJexWWxcwqoUFQFKbbUG6R71Eo4AXdYa6s/L9cnd0kCZwDoCkNivp07+q4XumwwIgqc08mKtXe0QHaAoLgKQ282CuXu0eHaApLACS2iyH5Wk1XF416rAASGqrLWj2A3TUTNOBzaNDNIEFQFJb5bwAkOo1KzpAE1gAJLVVjkvVajh872ABkNReW0YHUGs9PzpAE1gAJLVVTk8B1HD53sECIKm91o8OoNbaIDpAE1gAJLXV0ugAaq2nowM0gQVAUls9Hh1ArfVkdIAmsABIaqu/RAdQa90aHaAJLACS2ur66ABqrRuiAzSBBUBSW/0cWBwdQq3zOPDL6BBNYAGQ1FaPA+dFh1DrzMP5I4AFQFK7nQSMRIdQa4wAJ0eHaAoLgKQ2+zXw7egQao3TgWuiQzSFBUBS230cuDE6hBrvBuCo6BBNYgGQ1HYPA28A7ogOosa6HTiA9F5RhwVAUg7uAPYAfhodRI3zM+BlwJ3RQZrGAiApFwuBucB7SJ/4VLbbgHcDrwfui43STBYASTkZAb4FbA+8k3RFYHloIg3TMmA+cCgwCzgD7xJZo7HRASSpBkuA/9cZU4DXAK8GdgV2BjaPi6YK3QX8AbgOuKozHg1N1CIWAEm5WwSc2xkrTQS2BrbqjC07v87o/Pp3wLihptRzjQD3kC7l30Z69sPtwF9Jcz5ux4f6DMQCIKlETwI3dcbqjCEVhN1JVw/2B2YOJVm5FgAXAVeSPtHfgY/tVQ/OBFY0aBxW7+ZKGqL9SU+Riz6u5DZuAfbr4f+DKuIkQEnqzoXAXniHQZVuI+3Ti6KDlMgCIEndu5d0ZW9FdJAMjJD2pbfoBbEASFJvriatKa/BfJP0SGcFsQBIUu+OxRnog3gC+HR0iNJZACSpd/fhVYBBfBO4PzpE6SwAktSfE0krz6k3y4GTo0PIAiBJ/boN+GF0iBY6k3Trn4JZACSpf1/GOwJ6sYK0z9QAFgBJ6t/vgQuiQ7TIfNLa/WoAC4AkDeYr0QFa5IToAHqGBUCSBnMZ8KvoEC3wG9I6/2oIC4AkDe6k6AAt4Hf/DWMBkKTB/Ri4OTpEg/0JmBcdQs/m44AlaXDLgM+SbnGLtBy4Brix888vBF5CerxxpM+Sskm18XHAkqKMJp18I441dwL/Amy5mlzP7/zeXUHZfgmM6mlPSn2wAEiKtAfpasCwjjEPAEcDE7vINg74R+DuIeZbBuze1Z6TBmQBkBTtBOo/tjwOfB6Y1Ee+ScBxpAfy1J3z+D7ySX2xAEiKth5wFfUcU0ZIx7mtKsi5VefvGqkp6+U4z0xDZAGQ1ASbAwuo9njyC+AVNWR9Bel7+iqz/hHYrIas0hpZACQ1xeak2fhVnEwPpd6JdKOAd5Bu1xs07w3A9BqzSqtlAZBUt216+G8nA/9O/yfSIxjuZfTRwEH0X1x+CEzr4fV2qCq4ZAGQVLcr6W7W/ar2Ay5m3ceMx4GzgDnELtQ2GphLWuCom8mCFwOv7/E1JgE/ryiv+uAEDUnqzQuBLwEf7eHPXNQZOwCvBXYFNiUdgx8iXXr/LXAF8GQFGVcu/NPv4jsjwPmd8Txgb9ItjtsDG5Ju77sfuA64lJS/VyfhFQBVyCsAkuq2kHSCnBMdZDVGA4eQLuHfCBxMM5d8P4h0jHwwOojyYQGQVLeFpJ/vRcCLg7OsajbwO/72OHQt6RN8U7ycZ75WsACoMhYASXVbWQBWAPeQvhKItC3pu/p1HY/O6vy3kXbn2fvPAqDKWAAk1W3VE9gK0nfhLwnIMQ34CvA03R+TngJOBKYG5H0Vab7DqnksAKqMBUBS3Z5bAFaQJu4dMaTXnwB8ZA05uh0PAB8Cxg8p8/tZfVGxAKgyFgBJdVvbifdcYIuaXnd94EjSk/+qOkbdR3pS4JSaMk8Hzl7L61sAVBkLgKS6reuT9yPAP5MWAarCdNJJ+sF1vO4gYyHwOapbvndKJ/OidbyuBUCVsQBIqlu3l94fAf43sCe934q3KXA46T78pV2+XhVjKXAe8E5gkx4zj+5s67+Rtr2b17MABHIhIEmqxxTgA53xEPBfnXELqUQsJJ1wp5Im9M0EdgZeSrq9MOL+/bGkFQDnktY6uA64BrgeuJm0HYtITzzcuDO2A14J7EVaJEgtYQGQpPptCBzYGW0xmnTb3u7RQVSPJq4QJUmSamYBkCSpQBYASZIKZAGQJKlAFgBJkgpkAZAkqUAWAEmSCmQBkCSpQBYASZIKZAGQJKlAFgBJkgpkAZAkqUAWAEmSCmQBkCSpQBYASZIKZAGQJKlAY6MDVGwkOsBzfBh4Y3QIKXPfBc6JDiG1TW4FYHF0gOfYszMk1ec30QGkNsrtK4DHogNIktQGuRWApl0BkCSpkXIrAHdHB5AkqQ1yKwB/ig4gSVIbWAAkSSpQbgXgXuDh6BCSJDVdbgUA4OroAJIkNV2OBeCy6ACSJDVdjgXgZ9EBJElquhwLwO+B26JDSJLUZDkWgBWktcElSdIa5FgAAL5NKgKSJGk1ci0ANwNXRoeQJKmpci0AAMdHB5AkqalyLgA/Ba6JDiFJUhPlXAAAjosOIElSE+VeAM4Fzo8OIUlS0+ReAACOBJ6KDiFJUpOUUABuAb4QHUKSpCYpoQBAuiPg4ugQkiQ1RSkFYAQ4DLgnOogkSU1QSgEAuB84GHgyOogkSdFKKgAAVwOHAMuig0iSFKm0AgDp1sAP4LMCJEkFK7EAAJwGHAEsjQ4iSVKEUgsApEcGzwEeiw4iSdKwlVwAAC4B9iGtFSBJUjFKLwAA1wK7Ad+PDiJJ0rBYAJLHgEOBd5NuF5QkKWsW/nkpCgAAAz5JREFUgGc7A9gBOAVYHpxFkqTaWAD+1iOkBwjtAPwHrhkgScqQBWDNbgHeB8wCTgUeio0jSVJ1LADrdgvwIWBz4M3Aj4FFoYkkSRrQ2OgALbIEmNcZY4A9gH2BPUlXCbYFxoWlkySpBxaA/iwHft0ZK40FtgamdsYGuH+lYfh9dACpjTxBVWcZcHN0CEmSuuEcAEmSCmQBkCSpQBYASZIKZAGQJKlAFgBJys+TnSGtkQVAkvKyGHgjMBt4MDiLJEnZWAisaOi4l/R485V2Au5sQK41DQuKJKk1mloAbgNmribvNsCCBuSzAEiSWq2JBeAGYMu1ZJ4O/K4BOS0AkqTWaloB+BWwURe5pwJXNiCvBUCS1EpNKgAXA+v3kH086Ymm0bktAJKk1mlKAfgesF4f+ccA32hAfguAJKlVmlAAvs5gt3GPAk5swHZYACRJrRFdAI6vcFuOBkYCt8UCIElqjagCsAx4fw3b825gadA2WQAkSa0RUQCeBg6pcZveRFo62AIgSdIaDLsALAYOGMJ2zQYWDXnbLACSpNYYZgF4CHjFcDYLgJcA99ewHRYASVLrDasA3A3sMqRtWtUs4PY+8loAJElZG0YBuAnYalgbtBozgN+vJpcFQJJUrLoLwDXAJkPbmjWbBvwcC4AkSUC9BeBnwOThbco6TQJ+igVAkqTaCsA8YMIQt6Nb44DvYwGQJBWujgLwLWDsMDeiR2OAf8MCIEkqWNUF4HjS2vxtcDQWAElSoaoqACPAUUPOXoUPAcuxAEiSClNFAVgGvGfYwSv0DmAJFgBJUkEGLQBPAW8ZeurqzQUexwIgSSrEIAXgYeDVw49cm5cx2P6wAEiSWqPfE949wK4Beeu2E3AnFgBJUub6KQC3AjMjwg7J1sACLACSpIz1WgD+AGwRknS4NgOuxQIgScrUzXR/grsSmBoTM8QU4Aq63z+3xMSUJKl3Z9Hdye0cYGJQxkgTSdvezT46KyijJEk9exVpEZ+1ndjOoNlL+9ZtLHA6a99HI+R1R4QkqQBHs/oSMAKcQHuW9q3TKNK+WNPJ/5Nx0SRJ6t9sYD7wAGli4HnA60ITNdMc4FLgsc64mLTvFOz/A0pTIjUeN3OVAAAAAElFTkSuQmCC;imageBackground=none;" vertex="1" parent="1">
                    <mxGeometry x="430" y="320" width="30" height="30" as="geometry"/>
                </mxCell>
            </root>
        </mxGraphModel>
    </diagram>
</mxfile>